<svg version="1.0" xmlns="http://www.w3.org/2000/svg" width="120" height="120" viewBox="0 0 600 600" fill="#FEC3A6"><path d="M291.1 149.6c-12.6 1.8-18.2 3.6-28.7 8.8-8.3 4.2-8.8 4.3-12 3-1.8-.8-7.5-2-12.6-2.9-10.9-1.7-41.4-3.9-42.8-3-4.9 3 7.2 34.2 17.6 45.5l5.7 6.1-4.1 3.5c-5.5 4.7-13.5 16.8-16.1 24.5-1.2 3.5-2.5 9.5-2.8 13.2-.6 6.4-.8 7-4.5 10-5.9 4.9-15.1 17.3-20.1 27.3-11.5 22.6-14.2 46.2-8.7 74.8 5.8 30 18.8 55.3 44.9 87.5l7.3 9.1h12c11.6 0 12-.1 14.4-2.7 1.3-1.4 3.8-4.9 5.4-7.7 1.6-2.8 3.3-5.7 3.8-6.4.7-1 2.2-.8 7.3.7 34.4 10.6 69.4 10.1 107-1.5 1.2-.3 2.9 1.5 6 6.3 7.5 11.9 6.4 11.3 21 11.3h12.7l10.6-14c13.1-17.2 21.5-30.5 27.7-43.5 4.2-9.1 9.7-24.9 11.4-33.4l.7-3.3 2.9 3.1c6.1 6.8 15.8 8.8 23.6 5 5.7-2.8 8.9-6.8 10.3-13.2 1.1-4.8 1-5.9-.7-9.9-2.6-5.8-6.6-7.7-12.1-5.6-4.2 1.6-8.2 6.8-8.2 10.7 0 3.6 4.5 9.9 7.6 10.7 3.4.9 1.2 2.4-3.4 2.4-4 0-7.8-1.9-11.3-5.7-5-5.3-5.7-8-4.7-16.8 3.7-31.2-9-65.6-32.1-86.7-5.3-4.9-5.8-5.8-7-11.8-2.3-12-8.5-23.6-17.4-32.8l-5.2-5.3 3.3-2.5c7.4-5.9 16.2-21.3 20.2-35.6 2.4-8.8 2.5-12.4.4-13.2-2.2-.9-32.9 1.2-44.4 3-5.2.8-10.5 2.1-11.7 3-2.1 1.3-2.9 1.2-10.6-2.5-10.3-5-22.5-8.6-34.2-10-11.1-1.4-16.4-1.3-28.4.5zm41.2 14.8c11.1 3 19.4 6.8 28.5 13.3 7.8 5.5 13.1 12.2 18.7 23.3 2.4 4.8 6.8 11.6 9.8 15.1 13.3 15.6 18.5 33.4 14.7 50.3-4 17.8-19 34.8-38.5 43.7-6.5 2.9-8.2 5.1-7 8.9 1.2 3.9 5.1 3.6 15-1.4 17-8.4 30.2-19.8 38.1-32.7 3.7-6.2 7.4-15.5 7.4-18.8 0-5.7 3.8-1.8 10.8 11.1 6 11 9.8 21.5 12.3 33.6 1.8 8.8 2.1 12.6 1.6 24.1-.8 18.8-4.7 34.8-13.2 54.3-6.8 15.4-21.3 37.4-30.7 46.5l-4.3 4.2-6.9-.7-6.9-.7-4.2-7c-4.3-7.3-7.1-9.3-11.6-8.2-1.3.3-3.2 1.9-4.1 3.4-1.5 2.7-2.7 3.1-15.5 5.6-32.3 6.4-55.6 6.1-83.6-1.1-5.8-1.5-8.4-2.7-10.6-5.1-5.1-5.4-9.5-3.6-14.3 5.8l-3.4 6.6-7 .6c-8.2.6-8.3.6-18.3-12.1-22.3-28.1-33.3-55.2-35.7-88-1.6-21.4 4.9-44.7 18.4-66.8l3.9-6.2 2.8 8.6c5.5 17 21.1 32.5 43.6 43.4 11.3 5.4 16.9 5.2 16.9-.7 0-2.6-2.3-4.3-9.5-7.1-15-5.9-30.5-19.3-36.3-31.4-4.1-8.5-5.4-14.3-5.4-24.3-.1-13 5.4-25.2 17.7-39.5 3.8-4.4 8.1-11.1 11-16.9 8-15.9 20-25.6 40.7-32.5 11.2-3.8 16.8-4.5 31.8-4.2 10.7.3 15.6.9 23.3 3zm-105.8 5.2c7.7.9 14.2 1.8 14.4 2 .1.1-1.6 2.2-3.9 4.6-5.3 5.4-10.6 13.5-11.7 17.9l-.9 3.4-3.2-3.4c-3.8-4.2-8.6-13-11.2-20.7-2.4-7-2.5-6.5.3-5.9 1.2.2 8.5 1.2 16.2 2.1zM406 169c0 .5-2 5.5-4.4 11.1-4.2 9.4-8.8 16.9-10.4 16.9-.4 0-2.4-3.4-4.6-7.5-2.7-5.3-5.6-9.1-9.8-12.9l-5.9-5.4 7.3-.6c14.1-1.2 26.3-2.3 27.1-2.5.4 0 .7.3.7.9zm77 180.9c1.4 2.7 1.3 4.4-.5 6.7-1.5 1.9-1.5 1.9-3.5-.5-2.3-2.6-2.6-5.1-.8-6.9 1.8-1.8 3.6-1.5 4.8.7z"/><path d="M259.1 216.4c-1.6 1.9-1 6.6 1 7.9 2.6 1.6 6.8 0 7.5-3 .4-1.4.2-3.3-.3-4.2-1.3-2.1-6.6-2.6-8.2-.7zM297.4 216.4c-9.4 2.3-19.5 9.5-24 17.2-3.3 5.6-4.2 14.4-2.1 19.5 2.3 5.5 7.2 10.4 12.9 13 4.9 2.2 6.6 2.4 21.8 2.4 13.9 0 17.3-.3 21.8-2 17.6-6.5 22.2-24.4 9.8-38.2-9.8-10.9-25.3-15.5-40.2-11.9zm20.9 12.8c2.3.7 6 3.1 8.3 5.3 5.1 4.8 6.5 10 4.1 15-2.6 5.4-6.2 6.4-24.1 6.6-14.2.2-16 0-18.4-1.8-9-6.6-6.3-17.5 5.8-23.8 3.6-1.9 6.1-2.4 12.4-2.5 4.3 0 9.7.6 11.9 1.2z"/><path d="M291.4 238.8c-4.3 2.8-2.8 11.2 2 11.2 2.7 0 5.6-4.1 5.6-7.9 0-3.1-4.8-5.2-7.6-3.3zM317.2 239.2c-2.6 2.6-.1 10.8 3.3 10.8 2 0 4.5-4 4.5-7 0-3.1-1.7-5-4.5-5-1.2 0-2.6.5-3.3 1.2zM349.2 216.2c-.7.7-1.2 2.4-1.2 3.8s.5 3.1 1.2 3.8c.7.7 2.4 1.2 3.8 1.2s3.1-.5 3.8-1.2c.7-.7 1.2-2.4 1.2-3.8s-.5-3.1-1.2-3.8c-.7-.7-2.4-1.2-3.8-1.2s-3.1.5-3.8 1.2z"/></svg>